<svg xmlns="http://www.w3.org/2000/svg">
<symbol id="list" viewBox="0 0 60.1 60.1"><path d="M57.1 51.9H17a3 3 0 1 1 0-6h40.2a3 3 0 0 1 0 6zM57.1 33H17a3 3 0 1 1 0-6h40.2a3 3 0 0 1 0 6zM57.1 14.2H17a3 3 0 1 1 0-6h40.2a3 3 0 0 1 0 6z"/><circle cx="4" cy="11.5" r="4"/><circle cx="4" cy="30.1" r="4"/><circle cx="4" cy="48.7" r="4"/></symbol>
<symbol id="mail" viewBox="0 0 522 400"><path d="M491 4H30A26 26 0 0 0 5 29v342a26 26 0 0 0 25 25h461a26 26 0 0 0 26-25V29a26 26 0 0 0-26-25zm9 367a9 9 0 0 1-9 8H30a9 9 0 0 1-8-8V29a9 9 0 0 1 8-8h461a9 9 0 0 1 9 8v342z"/><path d="M475 38a9 9 0 0 0-6 2L272 205a17 17 0 0 1-22 0L53 40a9 9 0 0 0-11 13l197 165a34 34 0 0 0 44 0L480 53a9 9 0 0 0-5-15zM169 217a9 9 0 0 0-8 3L41 348a9 9 0 1 0 13 11l119-128a9 9 0 0 0-4-14zM361 220a9 9 0 1 0-12 11l119 128a9 9 0 0 0 12-11z"/></symbol>
</svg>